<svg xmlns="http://www.w3.org/2000/svg" xmlns:xlink="http://www.w3.org/1999/xlink" width="24" height="21"><g clip-path="url(#A)"><use xlink:href="#B"/><path d="M23.712 3a.89.89 0 0 0-.641-.261H5.75c0-.065-.022-.196-.066-.37-.022-.174-.066-.305-.088-.414a3.32 3.32 0 0 0-.111-.37c-.044-.153-.11-.26-.177-.35s-.177-.153-.288-.218C4.91.93 4.778.91 4.623.91H.93c-.265 0-.465.087-.664.26-.177.196-.265.392-.265.654a.83.83 0 0 0 .265.632c.2.174.398.26.664.26H3.87l2.544 11.7-.288.545-.42.85c-.11.24-.155.436-.155.566 0 .24.088.457.265.632s.398.262.64.262h14.754c.243 0 .464-.087.64-.262s.265-.392.265-.632-.088-.458-.265-.632-.398-.26-.64-.26H7.963c.22-.457.354-.763.354-.915 0-.087-.022-.196-.044-.305s-.044-.24-.088-.37a1.08 1.08 0 0 1-.066-.305l15.04-1.743c.243-.022.442-.13.597-.305s.22-.37.22-.6V3.633c.022-.24-.09-.458-.266-.632z"/><path d="M5.53 19.08c0 .5.177.937.53 1.285a1.8 1.8 0 0 0 1.305.523 1.8 1.8 0 0 0 1.305-.523c.354-.35.53-.784.53-1.285s-.177-.937-.53-1.285a1.8 1.8 0 0 0-1.305-.523 1.8 1.8 0 0 0-1.305.523 1.78 1.78 0 0 0-.531 1.285z"/></g><defs><clipPath id="A"><path transform="translate(0 .909)" d="M0 0h24v20H0z"/></clipPath><path id="B" d="M18.448 19.08c0 .5.177.937.53 1.285a1.8 1.8 0 0 0 1.305.523 1.8 1.8 0 0 0 1.305-.523c.354-.35.53-.784.53-1.285s-.177-.937-.53-1.285a1.8 1.8 0 0 0-1.305-.523 1.8 1.8 0 0 0-1.305.523 1.78 1.78 0 0 0-.531 1.285z"/></defs></svg>