<svg width="24" height="20" viewBox="0 0 24 20" xmlns="http://www.w3.org/2000/svg">
<path d="M18.4479 18.17C18.4479 18.6711 18.6249 19.1068 18.9788 19.4554C19.3327 19.804 19.7751 19.9783 20.2839 19.9783C20.7926 19.9783 21.235 19.804 21.589 19.4554C21.9429 19.1068 22.1198 18.6711 22.1198 18.17C22.1198 17.6689 21.9429 17.2332 21.589 16.8846C21.235 16.536 20.7926 16.3617 20.2839 16.3617C19.7751 16.3617 19.3327 16.536 18.9788 16.8846C18.6249 17.2549 18.4479 17.6689 18.4479 18.17Z"/>
<path d="M23.7124 2.0915C23.5355 1.91721 23.3143 1.83007 23.071 1.83007H5.75115C5.75115 1.76471 5.72903 1.63399 5.68479 1.45969C5.66267 1.2854 5.61843 1.15468 5.59631 1.04575C5.57419 0.936819 5.52995 0.8061 5.48571 0.675381C5.44147 0.522876 5.37512 0.413943 5.30876 0.326797C5.2424 0.239651 5.1318 0.174292 5.0212 0.108932C4.9106 0.0217865 4.77788 0 4.62304 0H0.929032C0.663594 0 0.464516 0.087146 0.265438 0.261438C0.0884793 0.457516 0 0.653595 0 0.915033C0 1.17647 0.0884793 1.37255 0.265438 1.54684C0.464516 1.72113 0.663594 1.80828 0.929032 1.80828H3.87097L6.41475 13.5076C6.39263 13.5512 6.30415 13.7255 6.12719 14.0523C5.95023 14.3791 5.81751 14.6623 5.70691 14.902C5.59631 15.1416 5.55207 15.3377 5.55207 15.4684C5.55207 15.7081 5.64055 15.9259 5.81751 16.1002C5.99447 16.2745 6.21567 16.3617 6.45899 16.3617H21.2129C21.4562 16.3617 21.6774 16.2745 21.8544 16.1002C22.0313 15.9259 22.1198 15.7081 22.1198 15.4684C22.1198 15.2288 22.0313 15.0109 21.8544 14.8366C21.6774 14.6623 21.4562 14.5752 21.2129 14.5752H7.96313C8.18433 14.1176 8.31705 13.8126 8.31705 13.6601C8.31705 13.573 8.29493 13.4641 8.27281 13.3551C8.25069 13.2462 8.22857 13.1155 8.18433 12.9847C8.14009 12.854 8.11797 12.7451 8.11797 12.6797L23.1594 10.9368C23.4028 10.915 23.6018 10.8061 23.7567 10.6318C23.9115 10.4575 23.9779 10.2614 23.9779 10.0218V2.72331C24 2.48366 23.8894 2.2658 23.7124 2.0915Z"/>
<path d="M5.52997 18.17C5.52997 18.6711 5.70693 19.1068 6.06084 19.4554C6.41476 19.804 6.85716 19.9783 7.36591 19.9783C7.87467 19.9783 8.31707 19.804 8.67098 19.4554C9.0249 19.1068 9.20186 18.6711 9.20186 18.17C9.20186 17.6689 9.0249 17.2332 8.67098 16.8846C8.31707 16.536 7.87467 16.3617 7.36591 16.3617C6.85716 16.3617 6.41476 16.536 6.06084 16.8846C5.70693 17.2549 5.52997 17.6689 5.52997 18.17Z"/>
</svg>
