<svg xmlns="http://www.w3.org/2000/svg" width="22" height="22" fill="none"><path d="M18.96 2.77C16.94.926 14.42 0 11.416 0 8.252 0 5.558 1.05 3.34 3.152 1.115 5.256 0 7.876 0 11.006c0 3 1.058 5.58 3.175 7.747 2.122 2.165 4.975 3.242 8.57 3.242 2.162 0 4.3-.437 6.373-1.324.68-.286 1.008-1.06.736-1.74-.283-.7-1.092-1.02-1.794-.73-1.81.774-3.588 1.156-5.315 1.156-2.75 0-4.885-.83-6.396-2.496-1.506-1.66-2.264-3.612-2.264-5.85 0-2.434.81-4.46 2.428-6.092 1.613-1.627 3.6-2.44 5.954-2.44 2.168 0 4.002.668 5.496 2.008 1.494 1.335 2.24 3.018 2.24 5.048 0 1.386-.345 2.547-1.03 3.467-.685.926-1.392 1.38-2.134 1.38-.396 0-.6-.213-.6-.64 0-.348.028-.752.08-1.217l.838-6.815H13.46l-.187.668c-.736-.595-1.55-.897-2.428-.897-1.392 0-2.592.55-3.583 1.65-.996 1.105-1.49 2.524-1.49 4.257 0 1.694.44 3.063 1.324 4.095.883 1.043 1.94 1.56 3.18 1.56 1.11 0 2.055-.46 2.84-1.38.594.886 1.466 1.324 2.62 1.324 1.698 0 3.164-.73 4.403-2.2 1.234-1.464 1.856-3.23 1.856-5.3 0-2.625-1.008-4.863-3.04-6.714zm-6.673 10.327c-.51.684-1.12 1.027-1.834 1.027-.487 0-.872-.252-1.166-.752-.3-.505-.447-1.127-.447-1.874 0-.925.21-1.672.623-2.232.42-.567.934-.853 1.55-.853.532 0 1.008.213 1.426.64s.623.993.623 1.7c-.006.88-.26 1.66-.775 2.345z" fill="#9a9a9a"/></svg>