<svg xmlns="http://www.w3.org/2000/svg" width="54" height="44" fill="#fff"><path d="M16.56 8.517c-.9 0-1.646.735-1.646 1.646s.735 1.646 1.646 1.646 1.646-.735 1.646-1.646-.735-1.646-1.646-1.646zm0 11.936c-.9 0-1.646.735-1.646 1.646s.735 1.646 1.646 1.646a1.65 1.65 0 0 0 1.644-1.645 1.65 1.65 0 0 0-1.646-1.646z"/><path d="M19.178 34.583v-3.106h9.285V17.772H36.6l1.118 5.766h5.3v7.94h3.105v-7.94h5.517V.557H4.79v9.513H.4v14.327h4.38v19.016H53.4v-8.83H19.178zm-2.62-7.733a4.76 4.76 0 0 1-4.751-4.751 4.76 4.76 0 0 1 4.751-4.751 4.76 4.76 0 0 1 4.751 4.751 4.76 4.76 0 0 1-4.751 4.751zm0-11.935a4.76 4.76 0 0 1-4.751-4.751 4.76 4.76 0 0 1 4.751-4.751 4.76 4.76 0 0 1 4.751 4.751 4.76 4.76 0 0 1-4.751 4.751z"/></svg>