<svg xmlns="http://www.w3.org/2000/svg" viewBox="0 0 19 26"><g clip-path="url(#A)"><path d="M9.504 13.133c2.775 0 5.033-2.74 5.033-6.116S13.797.9 9.504.9C5.212.9 4.47 3.65 4.47 7.025s2.25 6.107 5.033 6.107zM19 22.222c-.1-5.884-.857-7.553-6.738-8.616 0 0-.83 1.054-2.758 1.054s-2.758-1.054-2.758-1.054C.928 14.66.116 16.302.01 22.034c-.01.464-.01.5-.018.438v.616s1.4 2.82 9.504 2.82S19 23.088 19 23.088v-.455c0 .036 0-.036-.01-.4z"/></g><defs><clipPath id="A"><path transform="translate(0 .909)" d="M0 0h19v25H0z"/></clipPath></defs></svg>