<svg width="19" height="25" viewBox="0 0 19 25" fill="none" xmlns="http://www.w3.org/2000/svg">
<path d="M9.50442 12.2232C12.2799 12.2232 14.5378 9.48216 14.5378 6.10716C14.5378 2.73216 13.797 -0.00891113 9.50442 -0.00891113C5.21179 1.74399e-05 4.47107 2.74109 4.47107 6.11609C4.47107 9.49109 6.72001 12.2232 9.50442 12.2232Z" fill="white"/>
<path d="M18.9911 21.3125C18.9018 15.4286 18.1343 13.7589 12.2532 12.6964C12.2532 12.6964 11.4232 13.75 9.49555 13.75C7.56789 13.75 6.73792 12.6964 6.73792 12.6964C0.928149 13.75 0.11603 15.3928 0.00893762 21.125C1.32453e-05 21.5893 1.32453e-05 21.6161 -0.00891113 21.5625C-0.00891113 21.6607 -0.00891113 21.8571 -0.00891113 22.1786C-0.00891113 22.1786 1.39222 25 9.49555 25C17.5989 25 19 22.1786 19 22.1786C19 21.9643 19 21.8214 19 21.7232C19 21.7589 19 21.6875 18.9911 21.3125Z" fill="white"/>
</svg>
