<svg xmlns="http://www.w3.org/2000/svg" viewBox="0 0 628.96 146"><path d="M312.47 85.67h-65.32a5.19 5.19 0 0 0-5.19 5.19v38.36a5.19 5.19 0 0 0 5.19 5.19h65.32a21.46 21.46 0 0 0 16.49-7.43c7.932-9.916 7.932-24.004 0-33.92a21.46 21.46 0 0 0-16.49-7.39zm0 38.36h-60.13v-28h60.13c8.3 0 12.08 7.25 12.08 14s-3.78 14-12.08 14zm114.4 2.57L410.75 115h3.4c8.102 0 14.67-6.568 14.67-14.67s-6.568-14.67-14.67-14.67h-68.6a5.19 5.19 0 0 0 0 10.38h68.6a4.29 4.29 0 1 1 0 8.58h-55.6c-10.05.006-18.194 8.15-18.2 18.2v8.2a5.19 5.19 0 1 0 10.38-.02v-8.2a7.83 7.83 0 0 1 7.82-7.82h34.4l27.84 20a5.191 5.191 0 0 0 6.06-8.43zm12.76-41.15a5.19 5.19 0 0 0-5.19 5.19v40.16a5.19 5.19 0 1 0 10.38 0V90.64a5.19 5.19 0 0 0-5.19-5.19zm90.65 1a5.19 5.19 0 0 0-7.26 1.09l-27.62 37.28a5.26 5.26 0 0 1-4.26 2.15 5.28 5.28 0 0 1-4.27-2.18l-27.23-37.23a5.19 5.19 0 1 0-8.38 6.13l27.22 37.28a15.54 15.54 0 0 0 12.61 6.43 15.55 15.55 0 0 0 12.6-6.35l27.62-37.3a5.19 5.19 0 0 0-1.03-7.31zm12.25 9.37h81.24a5.19 5.19 0 1 0 0-10.38h-81.24a5.19 5.19 0 1 0 0 10.38zm81.24 27.97H552.1a4.37 4.37 0 0 1-4.37-4.37v-3.76h60.24a5.19 5.19 0 1 0 0-10.38h-65.43a5.2 5.2 0 0 0-5.19 5.19v9a14.77 14.77 0 0 0 14.75 14.75h71.68a5.19 5.19 0 1 0 0-10.38zM206.9 40.43h-30.78a27.9 27.9 0 0 1-19.16-7.58l-27.65-26a25.29 25.29 0 0 0-17.27-6.87h-90c-12.15 0-22 9.85-22 22v102c0 12.15 9.85 22 22 22H206.9c12.15 0 22-9.85 22-22V62.45a22 22 0 0 0-22-22.02zm-120.5 92.3H26.1c-7.2 0-13.08-6.7-13.08-15v-9.07a5.27 5.27 0 0 1 5.28-5.28h54a5.28 5.28 0 1 1 0 10.56H23.56v3.8c0 2.7 1.5 4.4 2.53 4.4h60.3a5.28 5.28 0 1 1 0 10.56zm27 2.25a13.74 13.74 0 0 1-11-5.45L76.3 95.28H17.9a5.28 5.28 0 0 1 0-10.56h61a5.3 5.3 0 0 1 4.2 2.08l27.66 36.34a3.29 3.29 0 0 0 5.23 0l27.45-36.3a5.28 5.28 0 0 1 8.42 6.36l-27.46 36.3a13.73 13.73 0 0 1-10.98 5.47zm98.37-3.12a5.28 5.28 0 0 1-7.37-1.18l-25.82-35.7a4 4 0 0 0-6.39 0l-14.4 19.12h24.9a5.28 5.28 0 0 1 0 10.56h-32.83l-4.4 5.88a5.281 5.281 0 1 1-8.44-6.35l26.72-35.55a14.39 14.39 0 0 1 11.61-5.8h.13a14.41 14.41 0 0 1 11.64 6l25.84 35.65a5.29 5.29 0 0 1-1.16 7.38z"/></svg>