<svg xmlns="http://www.w3.org/2000/svg" width="61" height="38" fill="#fff"><path d="M19.03 11.936a1.04 1.04 0 0 0 1.034 1.034h.35a1.08 1.08 0 0 0 .62-.207l6.453-4.836-.88-2.198-7.164 5.38a1.04 1.04 0 0 0-.414.828zm9.3 13.45a1.04 1.04 0 0 0 1.035 1.034h.35a1.08 1.08 0 0 0 .62-.207l7.164-5.366-1.85-1.46-6.905 5.172a1.04 1.04 0 0 0-.414.828zM21.914 14.64a12.99 12.99 0 0 1-7.642 2.47H8.505c-1.24 0-2.47-.194-3.66-.53.62 1.513 2.108 2.6 3.84 2.6h.944a6.18 6.18 0 0 1 5.547 3.427l4.54 9.1c.388-.065.776-.103 1.177-.103h8.7a7.21 7.21 0 0 1 3.996 1.203 5.05 5.05 0 0 0 2.845.866h14.16a4.13 4.13 0 0 0 3.3-1.655 6.25 6.25 0 0 1 4.966-2.483h.918c-.944-1.836-2.858-3.103-5.056-3.103a29.36 29.36 0 0 1-15.4-4.358l-7.746 5.806a3.1 3.1 0 0 1-1.862.621h-.336c-1.707 0-3.103-1.396-3.103-3.103 0-.97.465-1.9 1.24-2.483l6.595-4.953-1.022-1.06-6.698 4.8c-.53.375-1.15.582-1.8.582h-.375c-1.707 0-3.103-1.396-3.103-3.103a3.13 3.13 0 0 1 1.24-2.483l6.88-5.16a25.56 25.56 0 0 1-.879-1.668l-6.078 4.552a2.31 2.31 0 0 1-.349.22zm1.256 4.538a1.04 1.04 0 0 0 1.034 1.034h.375a1.03 1.03 0 0 0 .608-.194l6.57-4.707-1.435-2.004-6.724 5.043a1.02 1.02 0 0 0-.427.828zM25.807 3.75l-1-2.547a1.03 1.03 0 0 0-.957-.647h-4.8a1.04 1.04 0 0 0-1.034 1.034v8c.065-.052.142-.078.207-.13l7.604-5.703zm34.577 27.842h-1.526a4.13 4.13 0 0 0-3.3 1.655 6.25 6.25 0 0 1-4.965 2.483H36.4a7.21 7.21 0 0 1-3.996-1.203 5.05 5.05 0 0 0-2.845-.866h-8.7a5.05 5.05 0 0 0-2.845.866 7.18 7.18 0 0 1-3.996 1.203h-3.802a6.25 6.25 0 0 1-4.965-2.483 4.16 4.16 0 0 0-3.3-1.655H.4v1.034a5.17 5.17 0 0 0 5.172 5.172H15.1a5.05 5.05 0 0 0 2.845-.866 7.18 7.18 0 0 1 3.996-1.203h6.62a7.21 7.21 0 0 1 3.996 1.203 5.05 5.05 0 0 0 2.845.866h19.32a5.69 5.69 0 0 0 5.69-5.69 6.55 6.55 0 0 0-.026-.517zm-53.457.413a4.16 4.16 0 0 0 3.3 1.655h3.828a5.05 5.05 0 0 0 2.845-.866c.26-.18.543-.323.828-.465l-4.396-8.806c-.724-1.397-2.134-2.276-3.7-2.276h-.944a6.23 6.23 0 0 1-6.181-5.612A14.84 14.84 0 0 1 .4 14.3v15.233h1.552a6.25 6.25 0 0 1 4.966 2.483zM8.505 15.04h5.767c1.332 0 2.638-.246 3.853-.698-.582-.48-.996-1.15-1.112-1.927a9.37 9.37 0 0 1-3.155.556H9a9.25 9.25 0 0 1-6.582-2.73l-.078-.078c-.194-.194-.466-.297-.737-.297h-.168A1.04 1.04 0 0 0 .41 10.902v.18c0 .272.103.543.297.737 2.056 2.043 4.9 3.22 7.797 3.22z"/></svg>