<svg xmlns="http://www.w3.org/2000/svg" width="22" height="22" fill="#9a9a9a" fill-rule="evenodd"><path d="M22 11c0 6.075-4.925 11-11 11S0 17.075 0 11 4.925 0 11 0s11 4.925 11 11zm-5.342.06a5.46 5.46 0 0 1-.129 1.185 3.15 3.15 0 0 1 .337 1.421c0 1.767-1.453 3.2-3.245 3.2a3.27 3.27 0 0 1-1.534-.38 5.72 5.72 0 0 1-1.025.093c-3.1 0-5.596-2.47-5.596-5.518 0-.38.04-.75.113-1.108-.283-.476-.446-1.028-.446-1.62 0-1.768 1.453-3.2 3.246-3.2a3.26 3.26 0 0 1 1.726.491 5.7 5.7 0 0 1 .957-.081c3.1 0 5.596 2.47 5.596 5.517zm-2.725 2.638c-.26.362-.64.647-1.138.85-.5.2-1.078.304-1.748.304-.804 0-1.478-.14-2.004-.415a2.6 2.6 0 0 1-.921-.807c-.238-.337-.358-.673-.358-.997a.69.69 0 0 1 .233-.52c.153-.143.35-.214.584-.214a.74.74 0 0 1 .493.17 1.24 1.24 0 0 1 .328.473 2.77 2.77 0 0 0 .32.56 1.26 1.26 0 0 0 .47.36c.202.096.477.143.813.143.463 0 .842-.098 1.127-.3.28-.187.415-.413.415-.7 0-.217-.07-.388-.216-.523-.153-.14-.354-.25-.597-.325a11.86 11.86 0 0 0-1.027-.25c-.582-.123-1.075-.267-1.467-.433-.402-.168-.725-.4-.962-.693s-.362-.67-.362-1.106c0-.416.128-.792.38-1.116s.615-.573 1.087-.744c.464-.17 1.016-.255 1.642-.255.5 0 .94.057 1.306.17a2.91 2.91 0 0 1 .924.454c.244.19.43.392.544.603s.175.424.175.63a.74.74 0 0 1-.23.532.77.77 0 0 1-.575.237c-.207 0-.37-.05-.48-.148-.105-.092-.214-.235-.335-.44a1.83 1.83 0 0 0-.502-.613c-.188-.14-.502-.212-.935-.212-.4 0-.727.08-.97.236-.233.15-.347.324-.347.53a.48.48 0 0 0 .112.32.98.98 0 0 0 .333.25 2.46 2.46 0 0 0 .45.172l.774.188 1.237.32a3.94 3.94 0 0 1 .958.43c.263.17.48.392.63.656s.228.592.228.973c0 .454-.132.868-.392 1.23z"/></svg>