<svg xmlns="http://www.w3.org/2000/svg" xmlns:xlink="http://www.w3.org/1999/xlink" width="60" height="14" fill="none"><g fill-rule="evenodd" fill="#9a9a9a"><path d="M36.217 0h1.627L36.55 3.42h-1.586L36.217 0zM5.675 13.393H2.67V4.34H0V1.877h8.72L8.345 4.34h-2.67v9.054zm24.158 0H26.83V4.34h-2.67V1.877h8.68l-.334 2.462h-2.67v9.054z"/><use xlink:href="#B"/><path d="M15.188 9.347V9.18c-.042-1.878-.46-2.754-.96-3.38-.376-.46-1.127-1.168-2.712-1.168-.75 0-2.044.125-2.962 1.168-.793.876-1.043 2.086-1.043 3.338v.25c.042 1.168.376 2.42 1.335 3.255.876.75 1.92.918 2.754.96h.167c.75 0 2.044-.083 3.463-1.2l-1.085-1.67c-.626.5-1.46.835-2.17.876h-.084c-.292 0-.835-.083-1.168-.626-.167-.25-.2-.668-.2-.96h4.757v-.668h-.083zM10.43 8.054c0-.292.083-.834.334-1.127.167-.2.417-.25.668-.25s.626.083.793.542c.084.25.125.584.125.876v.083h-1.92v-.125zM21.697 9.18l-.2-.334 2.545-4.006h-3.38l-.376.75a4.69 4.69 0 0 0-.417 1.42c-.125-.626-.417-1.127-.5-1.293L18.693 4.6l-3.088.584 2.462 3.797-.167.2-2.795 4.214H18.6l.5-.876c.2-.376.376-.584.584-1.377h.042c0 .084.084.292.375.96l.626 1.335h3.672L21.697 9.18zm17.65.167V9.18c-.042-1.878-.46-2.754-.96-3.38-.376-.46-1.127-1.168-2.712-1.168-.75 0-2.044.125-2.962 1.168-.793.876-1.043 2.086-1.043 3.338v.25c.042 1.168.376 2.42 1.335 3.255.876.75 1.92.918 2.754.96h.167c.75 0 2.044-.083 3.463-1.2l-1.085-1.67c-.626.5-1.46.835-2.17.876h-.084c-.292 0-.834-.083-1.168-.626-.167-.25-.2-.668-.2-.96h4.757v-.668h-.083zM34.6 8.053c0-.292.083-.834.334-1.127.167-.2.417-.25.668-.25s.626.083.793.542c.084.25.125.584.125.876v.083H34.6v-.125z"/><use xlink:href="#B" x="6.132"/><path d="M58.3 13.768l.042-.042h-.167c.084 0 .084 0 .125.042zm1.585-1.668c-.417-.292-.584-.7-.584-1.544V7.5c0-.25 0-.876-.125-1.335-.125-.376-.375-.834-1.043-1.168-.7-.334-1.46-.376-2.003-.376-.918 0-1.586.2-2.128.376-.5.167-1.127.46-1.7.834l1.043 1.794c.083-.042.75-.584 1.502-.793.334-.083.668-.125.918-.125.167 0 .417 0 .584.2.042.042.125.167.125.584v.542h-.5c-.75 0-1.7.125-2.545.626-.25.167-.417.334-.584.5-.417.46-.626 1.043-.626 1.752 0 .793.292 1.502.75 1.96.375.375 1.043.7 2.086.7.75 0 1.585-.167 2.2-.7.2.375.542.584.96.793h.167L60 12.1c-.083.042-.083 0-.125 0zm-3.422-.75c-.083.084-.167.125-.25.167-.125.084-.25.084-.417.084-.2 0-.5-.084-.667-.334a1.11 1.11 0 0 1-.125-.501v-.084c0-.167.083-.46.417-.668.2-.125.46-.167.834-.2h.25v1.544h-.042z"/></g><path opacity=".5" d="M5.674 9.18H2.67v4.214h3.004V9.18z" fill="#9a9a9a"/><path d="M29.833 9.18H26.83v4.214h3.004V9.18zm13.687 0h-2.88v4.214h2.88V9.18z" fill="#9a9a9a"/><path opacity=".5" d="M7.47 9.43c.042 1.168.376 2.42 1.335 3.255.876.75 1.92.918 2.754.96h.167c.75 0 2.044-.083 3.463-1.2l-1.085-1.67c-.626.5-1.46.834-2.17.876h-.083c-.292 0-.835-.083-1.168-.626-.167-.25-.21-.668-.21-.96h4.757V9.18H7.47v.25z" fill="#9a9a9a"/><path d="M31.627 9.43c.042 1.168.375 2.42 1.335 3.255.876.75 1.92.918 2.754.96h.167c.75 0 2.044-.083 3.463-1.2l-1.085-1.67c-.626.5-1.46.834-2.17.876h-.083c-.292 0-.834-.083-1.168-.626-.167-.25-.2-.668-.2-.96h4.757V9.18h-7.803a.53.53 0 0 0 .042.25zm18.025-.25h-2.88v4.214h2.88V9.18zm3.172-.002c-.417.46-.626 1.043-.626 1.752 0 .793.292 1.502.75 1.96.375.376 1.043.7 2.086.7.75 0 1.585-.167 2.2-.7.2.376.542.584.96.793h.167L60 12.1c-.042 0-.042-.042-.083-.042-.417-.292-.584-.7-.584-1.544V9.137l-6.5.042zm2.17 1.544c0-.167.083-.46.417-.668.2-.125.46-.167.834-.2h.25v1.502a.87.87 0 0 1-.25.167c-.125.083-.25.083-.417.083-.2 0-.5-.083-.668-.334a1.11 1.11 0 0 1-.125-.501c-.042 0-.042 0-.042-.042z" fill="#9a9a9a"/><defs ><path id="B" d="M43.52 13.394h-2.88V8.22c0-1.293-.042-2.086-.25-3.088l2.63-.46c.042.167.167.5.167 1 .417-.626.96-1.043 1.752-1.043.25 0 .668.042 1.085.25l-.668 2.337c-.375-.21-.71-.25-.834-.25-.584 0-.876.334-1 .626v5.8z"/></defs></svg>