<svg xmlns="http://www.w3.org/2000/svg" width="37" height="37" fill="none"><path fill-rule="evenodd" d="M18.673 0C8.742 0 .692 8.283.692 18.5S8.742 37 18.673 37s17.98-8.283 17.98-18.5S28.604 0 18.673 0zm-.5 15.677l-.038-.64c-.113-1.66.88-3.175 2.453-3.762.58-.21 1.56-.235 2.2-.052.252.078.73.34 1.07.575l.616.43.68-.222c.377-.118.88-.314 1.107-.444.214-.118.402-.183.402-.144 0 .222-.465.98-.855 1.398-.528.588-.377.64.692.248.64-.222.654-.222.528.026-.075.13-.465.588-.88 1.006-.704.718-.742.797-.742 1.398 0 .928-.428 2.86-.855 3.92-.792 1.986-2.5 4.037-4.188 5.07-2.4 1.45-5.572 1.816-8.25.967-.893-.287-2.427-1.02-2.427-1.15 0-.04.465-.09 1.03-.105 1.182-.026 2.365-.366 3.37-.967l.68-.418-.78-.274c-1.107-.392-2.1-1.293-2.352-2.143-.075-.274-.05-.287.654-.287l.73-.013-.616-.3c-.73-.38-1.396-1.02-1.723-1.672-.24-.47-.54-1.66-.453-1.75.025-.04.29.04.59.144.868.327.98.248.478-.3-.943-.993-1.233-2.47-.78-3.867l.214-.627.83.85c1.698 1.71 3.698 2.73 5.987 3.03l.63.078z" fill="#9a9a9a"/></svg>