<svg width="16" height="16" viewBox="0 0 16 16" fill="none" xmlns="http://www.w3.org/2000/svg">
<g clip-path="url(#clip0)">
<path d="M15.7456 2.89371C15.3901 3.05135 15.021 3.17571 14.6424 3.26575C15.0596 2.86925 15.3733 2.37332 15.5503 1.81978C15.6008 1.66175 15.4292 1.5251 15.2865 1.60971C14.7597 1.92218 14.1923 2.15659 13.5999 2.3065C13.5655 2.3152 13.5301 2.31961 13.4945 2.31961C13.3866 2.31961 13.2817 2.27954 13.1992 2.20683C12.569 1.65137 11.7584 1.34546 10.9168 1.34546C10.5527 1.34546 10.185 1.40222 9.82401 1.51418C8.70553 1.86109 7.84252 2.78371 7.57175 3.92201C7.47017 4.34897 7.44267 4.77632 7.48995 5.19216C7.49537 5.23995 7.47279 5.2733 7.45886 5.28894C7.4344 5.31637 7.39972 5.33209 7.36371 5.33209C7.3597 5.33209 7.35556 5.33189 7.35146 5.3315C4.90314 5.10404 2.69535 3.9245 1.13477 2.01022C1.05519 1.91258 0.902587 1.92456 0.839157 2.03335C0.533555 2.55764 0.372056 3.1573 0.372056 3.76749C0.372056 4.70263 0.747757 5.5839 1.40035 6.22635C1.12592 6.16128 0.8603 6.0588 0.613564 5.92176C0.494195 5.85544 0.347323 5.94068 0.345646 6.07721C0.32856 7.46642 1.14191 8.70256 2.36034 9.25919C2.3358 9.25977 2.31126 9.26005 2.28669 9.26005C2.09355 9.26005 1.898 9.2414 1.70552 9.20461C1.57109 9.17895 1.45816 9.30647 1.4999 9.4368C1.89538 10.6715 2.95847 11.5816 4.23065 11.7882C3.17482 12.497 1.94528 12.8709 0.665564 12.8709L0.266613 12.8706C0.143693 12.8706 0.0397325 12.9507 0.00840775 13.0698C-0.0224489 13.1871 0.0343882 13.3108 0.139207 13.3717C1.58124 14.211 3.22608 14.6545 4.89663 14.6545C6.3589 14.6545 7.72674 14.3643 8.96217 13.792C10.0947 13.2674 11.0956 12.5174 11.9369 11.563C12.7206 10.6739 13.3334 9.64749 13.7583 8.51239C14.1633 7.43038 14.3774 6.27585 14.3774 5.17359V5.12109C14.3774 4.9441 14.4574 4.77757 14.5971 4.6642C15.127 4.23393 15.5885 3.72743 15.9687 3.15878C16.069 3.00863 15.9107 2.82045 15.7456 2.89371Z" fill="#3420A3"/>
</g>
<defs>
<clipPath id="clip0">
<rect width="16" height="16" fill="white"/>
</clipPath>
</defs>
</svg>
