<svg xmlns="http://www.w3.org/2000/svg" width="35" height="37" fill="none"><path fill-rule="evenodd" d="M17.495 0C7.833 0 0 8.167 0 18.242s7.833 18.24 17.495 18.24 17.495-8.167 17.495-18.24S27.158 0 17.495 0zm1.425 24c-.172.2-.51.228-.51.228h-1.115s-2.46.15-4.63-2.158c-2.364-2.52-4.45-7.518-4.45-7.518s-.12-.328.01-.486c.147-.178.548-.2.548-.2l2.666-.018s.25.042.43.178c.15.112.232.32.232.32a18.51 18.51 0 0 0 1.001 2.124c1.114 1.97 1.633 2.4 2.01 2.2.55-.307.386-2.785.386-2.785s.01-.9-.277-1.3c-.223-.3-.643-.4-.828-.426-.15-.02.096-.377.415-.537.48-.24 1.327-.254 2.328-.244.78.008 1.005.058 1.3.134.707.175.685.735.638 1.943-.014.36-.03.78-.03 1.265 0 .11-.003.225-.006.344-.017.62-.035 1.328.363 1.592.204.134.704.02 1.953-2.15.592-1.03 1.036-2.24 1.036-2.24s.098-.216.248-.308.362-.065.362-.065l2.806-.018s.843-.104.98.287c.143.408-.315 1.363-1.46 2.927-1.1 1.487-1.62 2.032-1.568 2.516.037.352.38.67 1.04 1.296 1.378 1.31 1.747 1.998 1.836 2.164l.017.03c.618 1.05-.686 1.13-.686 1.13l-2.493.036s-.535.108-1.24-.387c-.37-.26-.73-.682-1.073-1.085-.525-.616-1.01-1.184-1.423-1.05-.695.226-.674 1.757-.674 1.757s.006.328-.152.502z" fill="#9a9a9a"/></svg>