<svg xmlns="http://www.w3.org/2000/svg" xmlns:xlink="http://www.w3.org/1999/xlink" width="52" height="69" fill="none"><g clip-path="url(#A)" fill="#fff"><path d="M49.445 22.14H2.376A1.96 1.96 0 0 0 .41 24.105v5.233c0 .65.332 1.262.877 1.634l3.918 2.616c.32.212.704.332 1.09.332h39.233c.385 0 .77-.12 1.09-.332l3.918-2.616a1.97 1.97 0 0 0 .877-1.634v-5.233a1.96 1.96 0 0 0-1.966-1.966z"/><use xlink:href="#B"/><path d="M42.95 42.287a1.96 1.96 0 0 0-2.696 0c-1.062 1.01-4.53 4.516-4.53 7.305 0 3.24 2.643 5.884 5.884 5.884s5.884-2.643 5.884-5.884c0-2.79-3.48-6.295-4.542-7.305z"/><use xlink:href="#C"/><path d="M27.265 38.37a1.96 1.96 0 0 0-2.696 0c-1.062 1-4.53 4.516-4.53 7.305a5.9 5.9 0 0 0 5.884 5.884 5.9 5.9 0 0 0 5.884-5.884c-.013-2.8-3.48-6.295-4.542-7.305zM42.14 12.324a1.98 1.98 0 0 0-.969-1.102l-3.918-1.966a2.03 2.03 0 0 0-.877-.212H33.1v-6.52A1.96 1.96 0 0 0 31.143.557H20.677a1.96 1.96 0 0 0-1.966 1.966v6.534h-3.267a1.82 1.82 0 0 0-.877.212L10.65 11.22a1.98 1.98 0 0 0-.969 1.102L7.6 18.208h36.616l-2.085-5.884z"/></g><defs><clipPath id="A"><path fill="#fff" transform="translate(.41 .557)" d="M0 0h51v68H0z"/></clipPath><path id="B" d="M11.566 42.287a1.96 1.96 0 0 0-2.696 0c-1.062 1.01-4.53 4.516-4.53 7.305 0 3.24 2.643 5.884 5.884 5.884s5.884-2.643 5.884-5.884c0-2.79-3.48-6.295-4.542-7.305z"/><path id="C" d="M27.265 55.37a1.96 1.96 0 0 0-2.696 0c-1.062 1.01-4.53 4.516-4.53 7.305 0 3.24 2.643 5.884 5.884 5.884s5.884-2.643 5.884-5.884c-.013-2.79-3.48-6.295-4.542-7.305z"/></defs></svg>