<svg width="25" height="26" viewBox="0 0 25 26" fill="none" xmlns="http://www.w3.org/2000/svg">
<g clip-path="url(#clip0)">
<path d="M9.03371 14.1955C9.03371 13.8726 8.77186 13.609 8.4511 13.609H6.42832C6.10755 13.609 5.8457 13.8726 5.8457 14.1955V16.232C5.8457 16.5549 6.10755 16.8185 6.42832 16.8185H8.4511C8.77186 16.8185 9.03371 16.5549 9.03371 16.232V14.1955Z" fill="#EE3030"/>
<path d="M14.0942 14.1955C14.0942 13.8726 13.8324 13.609 13.5116 13.609H11.4889C11.1681 13.609 10.9062 13.8726 10.9062 14.1955V16.232C10.9062 16.5549 11.1681 16.8185 11.4889 16.8185H13.5116C13.8324 16.8185 14.0942 16.5549 14.0942 16.232V14.1955Z" fill="#EE3030"/>
<path d="M19.1538 14.1955C19.1538 13.8726 18.892 13.609 18.5712 13.609H16.5484C16.2277 13.609 15.9658 13.8726 15.9658 14.1955V16.232C15.9658 16.5549 16.2277 16.8185 16.5484 16.8185H18.5712C18.892 16.8185 19.1538 16.5549 19.1538 16.232V14.1955Z" fill="#EE3030"/>
<path d="M9.03371 19.2965C9.03371 18.9736 8.77186 18.71 8.4511 18.71H6.42832C6.10755 18.71 5.8457 18.9736 5.8457 19.2965V21.3329C5.8457 21.6558 6.10755 21.9195 6.42832 21.9195H8.4511C8.77186 21.9195 9.03371 21.6558 9.03371 21.3329V19.2965Z" fill="#EE3030"/>
<path d="M14.0942 19.2965C14.0942 18.9736 13.8324 18.71 13.5116 18.71H11.4889C11.1681 18.71 10.9062 18.9736 10.9062 19.2965V21.3329C10.9062 21.6558 11.1681 21.9195 11.4889 21.9195H13.5116C13.8324 21.9195 14.0942 21.6558 14.0942 21.3329V19.2965Z" fill="#EE3030"/>
<path d="M19.1538 19.2965C19.1538 18.9736 18.892 18.71 18.5712 18.71H16.5484C16.2277 18.71 15.9658 18.9736 15.9658 19.2965V21.3329C15.9658 21.6558 16.2277 21.9195 16.5484 21.9195H18.5712C18.892 21.9195 19.1538 21.6558 19.1538 21.3329V19.2965Z" fill="#EE3030"/>
<path d="M22.7743 2.86682V5.97746C22.7743 7.38779 21.6418 8.52133 20.2409 8.52133H18.6436C17.2427 8.52133 16.0971 7.38779 16.0971 5.97746V2.85364H8.90285V5.97746C8.90285 7.38779 7.75072 8.52133 6.35638 8.52133H4.7591C3.36476 8.52133 2.22571 7.38779 2.22571 5.97746V2.86682C1.00157 2.90636 0 3.92127 0 5.17344V23.4155C0 24.6874 1.02776 25.7353 2.29118 25.7353H22.7088C23.9722 25.7353 25 24.6874 25 23.4155V5.17344C25 3.92127 23.9919 2.89977 22.7743 2.86682ZM22.028 22.282C22.028 22.8356 21.5829 23.2771 21.0395 23.2771H3.91464C3.36476 23.2771 2.92616 22.829 2.92616 22.282V12.8578C2.92616 12.3042 3.3713 11.8626 3.91464 11.8626H21.0395C21.5894 11.8626 22.028 12.3108 22.028 12.8578V22.282Z" fill="#EE3030"/>
<path d="M4.75248 6.85395H6.33012C6.808 6.85395 7.20077 6.45853 7.20077 5.97744V0.876515C7.20077 0.38883 6.808 0 6.33012 0H4.75248C4.27461 0 3.88184 0.38883 3.88184 0.876515V5.97744C3.88184 6.45853 4.26806 6.85395 4.75248 6.85395Z" fill="#EE3030"/>
<path d="M18.6236 6.85395H20.2012C20.6791 6.85395 21.0719 6.46512 21.0719 5.97744V0.876515C21.0719 0.39542 20.6856 0 20.2012 0H18.6236C18.1457 0 17.7529 0.38883 17.7529 0.876515V5.97744C17.7529 6.45853 18.1457 6.85395 18.6236 6.85395Z" fill="#EE3030"/>
</g>
<defs>
<clipPath id="clip0">
<rect width="25" height="25.7353" fill="white"/>
</clipPath>
</defs>
</svg>
